<?xml version="1.0" encoding="utf-8"?>
<!-- Generator: Adobe Illustrator 19.1.1, SVG Export Plug-In . SVG Version: 6.00 Build 0)  -->
<svg version="1.1" id="Layer_1" xmlns="http://www.w3.org/2000/svg" xmlns:xlink="http://www.w3.org/1999/xlink" x="0px" y="0px"
	 viewBox="496.5 -9.5 25 24" style="enable-background:new 496.5 -9.5 25 24;" xml:space="preserve">
<style type="text/css">
	.st0{fill:#FFFFFF;}
	.st1{fill:#DB131D;}
</style>
<polygon class="st0" points="518.1,6.1 502.7,6.1 501,-4.7 520.4,-4.7 "/>
<g>
	<ellipse class="st1" cx="506.2" cy="12.1" rx="1.7" ry="1.8"/>
	<ellipse class="st1" cx="516.4" cy="12.1" rx="1.7" ry="1.8"/>
</g>
<path class="st1" d="M519.2,9.7h-14.8c-0.9,0-1.7-0.8-1.7-1.8V7.3h14c1.3,0,2.5-1,2.8-2.4l1.9-10.1c0-0.2,0-0.4-0.1-0.5
	c-0.1-0.1-0.3-0.2-0.4-0.2h-20L500.5-9c0-0.3-0.3-0.5-0.6-0.5h-2.8c-0.3,0-0.6,0.3-0.6,0.6c0,0.3,0.3,0.6,0.6,0.6h2.4l2.2,15v1.2
	c0,1.6,1.1,2.8,2.6,3c-0.2,0.4-0.3,0.8-0.3,1.2c0,1.3,1,2.4,2.3,2.4s2.3-1.1,2.3-2.4c0-0.4-0.1-0.8-0.3-1.2h6.3
	c-0.2,0.4-0.3,0.8-0.3,1.2c0,1.3,1,2.4,2.3,2.4c1.3,0,2.3-1.1,2.3-2.4c0-0.4-0.1-0.8-0.3-1.2h0.9c0.3,0,0.6-0.3,0.6-0.6
	C519.8,10,519.5,9.7,519.2,9.7z M519,1.9h-2.6v-2.4h3.1L519,1.9z M515.2,1.9H513v-2.4h2.3V1.9z M502.7,6.1l-0.4-3h2.8v3H502.7z
	 M506.2,3.1h2.3v3h-2.3V3.1z M509.6,3.1h2.3v3h-2.3V3.1z M509.6,1.9v-2.4h2.3v2.4H509.6z M513,3.1h2.3v3H513V3.1L513,3.1z M513-1.7
	v-3h2.3v3L513-1.7L513-1.7z M511.8-1.7h-2.3v-3h2.3V-1.7z M508.4-1.7h-2.3v-3h2.3V-1.7z M508.4-0.5v2.4h-2.3v-2.4H508.4z M505,1.9
	h-3l-0.3-2.4h3.3L505,1.9L505,1.9z M516.8,6.1h-0.4v-3h2.4l-0.3,1.6C518.3,5.5,517.6,6.1,516.8,6.1z M519.7-1.7h-3.3v-3h3.9
	L519.7-1.7z M505-4.7v3h-3.4c0,0-0.1,0-0.1,0l-0.4-3H505z M507.3,12.1c0,0.7-0.5,1.2-1.1,1.2s-1.1-0.5-1.1-1.2
	c0-0.7,0.5-1.2,1.1-1.2S507.3,11.4,507.3,12.1z M517.5,12.1c0,0.7-0.5,1.2-1.1,1.2c-0.6,0-1.1-0.5-1.1-1.2c0-0.7,0.5-1.2,1.1-1.2
	C517,10.9,517.5,11.4,517.5,12.1z"/>
</svg>
