<?xml version="1.0" encoding="utf-8"?>
<!-- Generator: Adobe Illustrator 19.1.1, SVG Export Plug-In . SVG Version: 6.00 Build 0)  -->
<svg version="1.1" id="Capa_1" xmlns="http://www.w3.org/2000/svg" xmlns:xlink="http://www.w3.org/1999/xlink" x="0px" y="0px"
	 viewBox="294.7 -9.7 25 25" style="enable-background:new 294.7 -9.7 25 25;" xml:space="preserve">
<style type="text/css">
	.st0{fill:#DB131D;}
</style>
<g>
	<g>
		<path class="st0" d="M309.9,9.1c0,0,0.3-0.2,0.5,0.1c1.3,1.3,5.2,5.2,5.2,5.2c1,1,2.5,1.3,3.4,0.4l0.2-0.2
			c0.9-0.9,0.7-2.4-0.4-3.4c0,0-3.9-3.9-5.2-5.2c-0.2-0.2-0.1-0.5-0.1-0.5c2.3-3.9,1.8-8.9-1.5-12.2c-4-4-10.4-4-14.3,0
			c-4,4-4,10.4,0,14.3C301,11,306,11.5,309.9,9.1z M299.5,5.7c-2.9-2.9-2.9-7.7,0-10.6c2.9-2.9,7.7-2.9,10.6,0
			c2.9,2.9,2.9,7.7,0,10.6C307.2,8.7,302.5,8.7,299.5,5.7z"/>
		<g>
			<path class="st0" d="M308.5-0.8c-1-2.3-3.6-3.4-5.9-2.4c-0.5,0.2-1.1,0-1.4-0.6c-0.2-0.5,0-1.1,0.6-1.4c3.3-1.4,7.2,0.2,8.6,3.5
				c0.2,0.5,0,1.1-0.6,1.4c-0.1,0.1-0.3,0.1-0.4,0.1C309.1-0.2,308.7-0.4,308.5-0.8z"/>
		</g>
	</g>
</g>
</svg>
