<?xml version="1.0" encoding="utf-8"?>
<!-- Generator: Adobe Illustrator 19.1.1, SVG Export Plug-In . SVG Version: 6.00 Build 0)  -->
<svg version="1.1" id="Capa_1" xmlns="http://www.w3.org/2000/svg" xmlns:xlink="http://www.w3.org/1999/xlink" x="0px" y="0px"
	 viewBox="332.5 -9.5 25 24.9" style="enable-background:new 332.5 -9.5 25 24.9;" xml:space="preserve">
<style type="text/css">
	.st0{fill:#DB131D;}
</style>
<g>
	<g>
		<g>
			<path class="st0" d="M356.3,10.6l-3.6-3.9c-0.7-0.8-1.9-0.8-2.8-0.1l-2,1.8c-0.1-0.1-0.2-0.1-0.4-0.2c-1.2-0.7-2.7-1.7-4.4-3.5
				c-1.6-1.8-2.5-3.5-3.1-4.7c-0.1-0.1-0.1-0.3-0.2-0.4l1.3-1.2l0.7-0.6c0.8-0.7,0.9-2,0.2-2.8L338.6-9c-0.7-0.8-1.9-0.8-2.8-0.1
				l-1.1,1l0,0c-0.4,0.4-0.7,0.9-0.9,1.5c-0.2,0.5-0.4,1-0.5,1.5c-0.7,4.1,1,7.9,5.8,13.3c6.7,7.4,12.4,7.1,12.6,7.1
				c0.5,0,1.1-0.1,1.6-0.3c0.6-0.2,1.1-0.5,1.6-0.8l0,0l1.1-1C356.9,12.6,357,11.4,356.3,10.6z"/>
		</g>
	</g>
</g>
</svg>
